<?xml version="1.0" encoding="utf-8"?>
<!-- Generator: Adobe Illustrator 16.0.4, SVG Export Plug-In . SVG Version: 6.00 Build 0)  -->
<!DOCTYPE svg PUBLIC "-//W3C//DTD SVG 1.1//EN" "http://www.w3.org/Graphics/SVG/1.1/DTD/svg11.dtd">
<svg version="1.1" id="Layer_1" xmlns="http://www.w3.org/2000/svg" xmlns:xlink="http://www.w3.org/1999/xlink" x="0px" y="0px"
	 width="196.564px" height="115.196px" viewBox="0 0 196.564 115.196" enable-background="new 0 0 196.564 115.196"
	 xml:space="preserve">
<g>
	<g>
		<path d="M47.005,28.1c0.618,0.248,1.179,0.68,1.682,1.298c0.406,0.503,0.68,1.122,0.821,1.854
			c0.088,0.486,0.133,1.197,0.133,2.132l-0.027,9.098h-3.867v-9.191c0-0.547-0.088-0.998-0.265-1.351
			c-0.335-0.671-0.953-1.007-1.854-1.007c-1.042,0-1.761,0.433-2.159,1.298c-0.203,0.459-0.304,1.011-0.304,1.656v8.595h-3.801
			v-8.595c0-0.856-0.088-1.479-0.265-1.868c-0.318-0.697-0.94-1.046-1.867-1.046c-1.077,0-1.801,0.349-2.172,1.046
			c-0.203,0.397-0.305,0.989-0.305,1.775v8.688h-3.827V28.073h3.668v2.106c0.468-0.75,0.91-1.285,1.325-1.603
			c0.732-0.565,1.682-0.848,2.847-0.848c1.104,0,1.995,0.243,2.675,0.729c0.547,0.45,0.962,1.028,1.245,1.735
			c0.495-0.848,1.108-1.47,1.841-1.868c0.777-0.397,1.642-0.596,2.596-0.596C45.761,27.729,46.388,27.853,47.005,28.1z"/>
		<path d="M56.422,42.482h-3.774V22.961h3.774V42.482z"/>
	</g>
	<g>
		<path d="M32.849,64.59h-3.774V45.069h3.774V64.59z"/>
		<path d="M45.394,50.447c1.007,0.451,1.838,1.163,2.494,2.136c0.591,0.857,0.975,1.852,1.15,2.983
			c0.102,0.664,0.143,1.618,0.124,2.865H38.649c0.059,1.449,0.562,2.463,1.509,3.046c0.577,0.362,1.27,0.543,2.081,0.543
			c0.86,0,1.559-0.221,2.096-0.662c0.293-0.238,0.552-0.569,0.777-0.993h3.854c-0.102,0.856-0.568,1.727-1.399,2.609
			c-1.293,1.403-3.103,2.105-5.431,2.105c-1.921,0-3.616-0.592-5.084-1.776c-1.469-1.184-2.203-3.11-2.203-5.78
			c0-2.5,0.663-4.418,1.988-5.752c1.326-1.335,3.046-2.002,5.162-2.002C43.255,49.771,44.387,49.996,45.394,50.447z M39.748,53.708
			c-0.534,0.55-0.869,1.294-1.005,2.234h6.502c-0.069-1.002-0.404-1.763-1.006-2.281c-0.602-0.519-1.348-0.778-2.238-0.778
			C41.032,52.883,40.281,53.158,39.748,53.708z"/>
		<path d="M56.246,55.81c0.703-0.088,1.205-0.198,1.508-0.331c0.542-0.229,0.813-0.587,0.813-1.072c0-0.592-0.208-1-0.624-1.226
			c-0.416-0.225-1.027-0.338-1.833-0.338c-0.904,0-1.544,0.221-1.919,0.662c-0.269,0.327-0.448,0.769-0.537,1.324h-3.642
			c0.08-1.262,0.435-2.299,1.064-3.111c1.002-1.271,2.722-1.907,5.161-1.907c1.587,0,2.997,0.313,4.229,0.94
			c1.232,0.627,1.849,1.81,1.849,3.549v6.623c0,0.459,0.009,1.015,0.026,1.668c0.026,0.495,0.102,0.83,0.225,1.007
			s0.309,0.322,0.556,0.437v0.557h-4.105c-0.115-0.291-0.194-0.564-0.239-0.821c-0.044-0.256-0.079-0.547-0.106-0.874
			c-0.524,0.565-1.128,1.047-1.812,1.443c-0.817,0.468-1.741,0.702-2.771,0.702c-1.314,0-2.4-0.373-3.257-1.119
			c-0.857-0.746-1.286-1.803-1.286-3.172c0-1.774,0.689-3.059,2.068-3.854c0.756-0.433,1.868-0.741,3.335-0.927L56.246,55.81z
			 M58.554,57.571c-0.242,0.149-0.486,0.271-0.732,0.364c-0.246,0.092-0.584,0.179-1.013,0.258l-0.859,0.159
			c-0.805,0.141-1.384,0.314-1.735,0.517c-0.594,0.344-0.892,0.878-0.892,1.603c0,0.645,0.182,1.11,0.544,1.396
			c0.363,0.287,0.805,0.431,1.325,0.431c0.825,0,1.584-0.238,2.279-0.715c0.695-0.478,1.056-1.347,1.083-2.609V57.571z"/>
		<path d="M73.089,49.817c0.048,0.004,0.157,0.011,0.324,0.02v3.867c-0.238-0.026-0.45-0.044-0.636-0.053
			c-0.185-0.009-0.335-0.014-0.45-0.014c-1.519,0-2.538,0.494-3.059,1.483c-0.292,0.556-0.437,1.412-0.437,2.569v6.9h-3.801V50.154
			h3.602v2.517c0.583-0.962,1.09-1.62,1.523-1.974c0.707-0.591,1.625-0.887,2.755-0.887C72.981,49.811,73.041,49.812,73.089,49.817z
			"/>
		<path d="M86.723,50.982c0.945,0.781,1.418,2.077,1.418,3.887v9.721h-3.867V55.81c0-0.759-0.101-1.342-0.303-1.748
			c-0.368-0.741-1.069-1.112-2.103-1.112c-1.271,0-2.144,0.543-2.616,1.629c-0.246,0.574-0.368,1.307-0.368,2.198v7.814h-3.775
			V50.182h3.656v2.105c0.483-0.742,0.94-1.276,1.371-1.603c0.773-0.583,1.754-0.874,2.94-0.874
			C84.562,49.811,85.777,50.201,86.723,50.982z"/>
		<path d="M94.988,48.433h-3.827V44.95h3.827V48.433z M91.161,50.154h3.827V64.59h-3.827V50.154z"/>
		<path d="M109.74,50.982c0.945,0.781,1.418,2.077,1.418,3.887v9.721h-3.867V55.81c0-0.759-0.101-1.342-0.303-1.748
			c-0.368-0.741-1.069-1.112-2.103-1.112c-1.271,0-2.144,0.543-2.616,1.629c-0.246,0.574-0.368,1.307-0.368,2.198v7.814h-3.774
			V50.182h3.655v2.105c0.483-0.742,0.94-1.276,1.371-1.603c0.773-0.583,1.754-0.874,2.94-0.874
			C107.58,49.811,108.795,50.201,109.74,50.982z"/>
		<path d="M121.267,50.142c0.917,0.38,1.657,1.077,2.222,2.093v-2.08h3.682v13.695c0,1.862-0.313,3.267-0.94,4.211
			c-1.077,1.624-3.143,2.437-6.197,2.437c-1.846,0-3.351-0.362-4.516-1.086c-1.166-0.724-1.811-1.806-1.934-3.244h4.105
			c0.105,0.441,0.277,0.759,0.516,0.953c0.406,0.345,1.091,0.517,2.053,0.517c1.36,0,2.27-0.455,2.729-1.364
			c0.3-0.582,0.45-1.562,0.45-2.939v-0.928c-0.362,0.618-0.75,1.082-1.165,1.391c-0.751,0.574-1.727,0.861-2.927,0.861
			c-1.854,0-3.336-0.651-4.443-1.953c-1.108-1.303-1.662-3.066-1.662-5.292c0-2.146,0.533-3.948,1.601-5.41
			c1.066-1.461,2.579-2.191,4.536-2.191C120.099,49.811,120.729,49.921,121.267,50.142z M122.552,60.492
			c0.607-0.667,0.91-1.729,0.91-3.186c0-1.368-0.288-2.41-0.863-3.125c-0.576-0.715-1.348-1.072-2.314-1.072
			c-1.319,0-2.229,0.622-2.73,1.867c-0.264,0.662-0.396,1.479-0.396,2.449c0,0.839,0.141,1.585,0.422,2.239
			c0.51,1.219,1.425,1.828,2.743,1.828C121.202,61.492,121.945,61.159,122.552,60.492z"/>
	</g>
	<g>
		<path d="M32.875,71.749h-3.827v-3.482h3.827V71.749z M29.048,73.471h3.827v14.436h-3.827V73.471z"/>
		<path d="M47.627,74.299c0.945,0.781,1.418,2.076,1.418,3.887v9.721h-3.867v-8.781c0-0.758-0.101-1.342-0.302-1.748
			c-0.368-0.74-1.069-1.111-2.104-1.111c-1.271,0-2.143,0.543-2.616,1.629c-0.245,0.574-0.368,1.307-0.368,2.197v7.814h-3.774
			V73.499h3.655v2.105c0.483-0.742,0.941-1.277,1.372-1.604c0.773-0.582,1.754-0.873,2.941-0.873
			C45.467,73.127,46.683,73.518,47.627,74.299z"/>
		<path d="M55.893,71.749h-3.827v-3.482h3.827V71.749z M52.065,73.471h3.827v14.436h-3.827V73.471z"/>
		<path d="M57.522,76.292v-2.688h2.013v-4.027h3.735v4.027h2.344v2.688H63.27v7.629c0,0.592,0.075,0.959,0.225,1.105
			c0.15,0.146,0.609,0.219,1.377,0.219c0.115,0,0.236-0.002,0.364-0.008c0.128-0.004,0.254-0.01,0.377-0.02v2.822l-1.788,0.064
			c-1.784,0.062-3.002-0.246-3.655-0.926c-0.424-0.434-0.636-1.1-0.636-2v-8.887H57.522z"/>
		<path d="M71.375,71.749h-3.827v-3.482h3.827V71.749z M67.547,73.471h3.827v14.436h-3.827V73.471z"/>
		<path d="M80.204,79.125c0.703-0.088,1.205-0.197,1.508-0.33c0.543-0.23,0.814-0.588,0.814-1.072c0-0.592-0.209-1-0.625-1.227
			c-0.416-0.225-1.027-0.338-1.832-0.338c-0.904,0-1.543,0.221-1.92,0.662c-0.268,0.328-0.447,0.77-0.537,1.324h-3.642
			c0.08-1.262,0.435-2.299,1.064-3.111c1.001-1.271,2.722-1.906,5.161-1.906c1.586,0,2.996,0.312,4.229,0.939s1.85,1.811,1.85,3.549
			v6.623c0,0.459,0.008,1.014,0.025,1.668c0.027,0.494,0.102,0.83,0.227,1.006c0.123,0.178,0.309,0.322,0.555,0.438v0.557h-4.105
			c-0.113-0.291-0.193-0.564-0.238-0.822c-0.043-0.256-0.078-0.547-0.105-0.873c-0.523,0.564-1.127,1.047-1.811,1.443
			c-0.818,0.467-1.742,0.701-2.771,0.701c-1.314,0-2.4-0.373-3.257-1.119c-0.857-0.746-1.286-1.803-1.286-3.172
			c0-1.773,0.689-3.059,2.068-3.854c0.756-0.432,1.867-0.74,3.336-0.926L80.204,79.125z M82.513,80.887
			c-0.242,0.15-0.486,0.271-0.732,0.365c-0.246,0.092-0.584,0.178-1.014,0.258l-0.857,0.158c-0.807,0.141-1.385,0.314-1.736,0.518
			c-0.594,0.344-0.891,0.877-0.891,1.602c0,0.645,0.182,1.111,0.545,1.396c0.361,0.287,0.805,0.432,1.324,0.432
			c0.824,0,1.584-0.238,2.279-0.715c0.695-0.479,1.055-1.348,1.082-2.609V80.887z"/>
		<path d="M87.546,76.292v-2.688h2.013v-4.027h3.734v4.027h2.345v2.688h-2.345v7.629c0,0.592,0.075,0.959,0.226,1.105
			c0.149,0.146,0.609,0.219,1.377,0.219c0.115,0,0.236-0.002,0.364-0.008c0.128-0.004,0.254-0.01,0.378-0.02v2.822l-1.788,0.064
			c-1.783,0.062-3.002-0.246-3.655-0.926c-0.424-0.434-0.636-1.1-0.636-2v-8.887H87.546z"/>
		<path d="M101.399,71.749h-3.827v-3.482h3.827V71.749z M97.572,73.471h3.827v14.436h-3.827V73.471z"/>
		<path d="M113.404,73.471h4.053l-5.213,14.436h-3.979l-5.177-14.436h4.237l3.007,10.648L113.404,73.471z"/>
		<path d="M128.46,73.764c1.007,0.451,1.838,1.162,2.494,2.135c0.592,0.857,0.975,1.852,1.15,2.984
			c0.102,0.664,0.143,1.617,0.124,2.865h-10.514c0.059,1.447,0.562,2.463,1.51,3.045c0.576,0.363,1.271,0.543,2.081,0.543
			c0.86,0,1.559-0.221,2.096-0.662c0.293-0.238,0.553-0.568,0.777-0.992h3.853c-0.102,0.855-0.567,1.727-1.398,2.609
			c-1.293,1.402-3.104,2.105-5.431,2.105c-1.922,0-3.616-0.592-5.085-1.777c-1.469-1.184-2.203-3.109-2.203-5.779
			c0-2.5,0.663-4.418,1.989-5.752c1.325-1.334,3.046-2.002,5.162-2.002C126.321,73.086,127.453,73.313,128.46,73.764z
			 M122.813,77.024c-0.533,0.551-0.868,1.295-1.006,2.234h6.503c-0.069-1.002-0.404-1.762-1.006-2.281
			c-0.602-0.518-1.348-0.777-2.238-0.777C124.098,76.2,123.347,76.475,122.813,77.024z"/>
	</g>
	<g>
		<rect x="0.5" y="57.598" stroke="#000000" stroke-miterlimit="10" width="14.276" height="14.274"/>
		<rect x="0.5" y="71.872" stroke="#000000" stroke-miterlimit="10" width="14.276" height="14.275"/>
		<rect x="0.5" y="86.147" stroke="#000000" stroke-miterlimit="10" width="14.276" height="14.273"/>
		<rect x="0.5" y="100.42" stroke="#000000" stroke-miterlimit="10" width="14.276" height="14.275"/>
		<rect x="14.776" y="100.42" stroke="#000000" stroke-miterlimit="10" width="14.273" height="14.275"/>
		<rect x="29.05" y="100.42" stroke="#000000" stroke-miterlimit="10" width="14.275" height="14.275"/>
		<rect x="43.325" y="100.42" stroke="#000000" stroke-miterlimit="10" width="14.274" height="14.275"/>
	</g>
	<g>
		<rect x="96.143" y="0.5" stroke="#000000" stroke-miterlimit="10" width="14.274" height="14.275"/>
		<rect x="110.417" y="0.5" stroke="#000000" stroke-miterlimit="10" width="14.276" height="14.275"/>
		<rect x="124.693" y="0.5" stroke="#000000" stroke-miterlimit="10" width="14.273" height="14.275"/>
		<rect x="138.967" y="0.5" stroke="#000000" stroke-miterlimit="10" width="14.276" height="14.275"/>
		<rect x="138.967" y="14.775" stroke="#000000" stroke-miterlimit="10" width="14.276" height="14.274"/>
		<rect x="138.967" y="29.049" stroke="#000000" stroke-miterlimit="10" width="14.276" height="14.274"/>
		<rect x="138.967" y="43.323" stroke="#000000" stroke-miterlimit="10" width="14.276" height="14.274"/>
		<rect x="153.243" y="43.323" stroke="#000000" stroke-miterlimit="10" width="14.271" height="14.274"/>
		<rect x="167.515" y="43.323" stroke="#000000" stroke-miterlimit="10" width="14.277" height="14.274"/>
		<rect x="181.792" y="43.323" stroke="#000000" stroke-miterlimit="10" width="14.272" height="14.274"/>
		<rect x="181.792" y="57.598" stroke="#000000" stroke-miterlimit="10" width="14.272" height="14.274"/>
		<rect x="181.792" y="71.872" stroke="#000000" stroke-miterlimit="10" width="14.272" height="14.275"/>
		<rect x="181.792" y="86.147" stroke="#000000" stroke-miterlimit="10" width="14.272" height="14.275"/>
	</g>
</g>
</svg>
